<?xml version="1.0" encoding="UTF-8" standalone="no"?>
<svg  xmlns:dc="http://purl.org/dc/elements/1.1/" xmlns:cc="http://creativecommons.org/ns#" xmlns:rdf="http://www.w3.org/1999/02/22-rdf-syntax-ns#" xmlns:svg="http://www.w3.org/2000/svg" xmlns="http://www.w3.org/2000/svg" xmlns:sodipodi="http://sodipodi.sourceforge.net/DTD/sodipodi-0.dtd" xmlns:inkscape="http://www.inkscape.org/namespaces/inkscape" width="80px" height="80px" id="svg10786" version="1.1" inkscape:version="0.48.4 r9939" sodipodi:docname="Car Pushpin Location.svg">
  <defs id="defs10788"/>
  <sodipodi:namedview id="base" pagecolor="#ffffff" bordercolor="#666666" borderopacity="1.0" inkscape:pageopacity="0.0" inkscape:pageshadow="2" inkscape:zoom="2.8" inkscape:cx="54.123737" inkscape:cy="33.681664" inkscape:document-units="px" inkscape:current-layer="layer1" showgrid="false" inkscape:window-width="667" inkscape:window-height="689" inkscape:window-x="683" inkscape:window-y="0" inkscape:window-maximized="0"/>
  
  <g inkscape:label="Layer 1" inkscape:groupmode="layer" id="layer1" transform="translate(0,-952.36218)">
    <path style="fill:#000000;fill-opacity:1;stroke:none" d="m 70.0466,975.35401 c -0.27,0.0256 -0.501,0.291 -0.5,0.5625 l 0,3.5 -19.219,0 c -0.287,3e-5 -0.562,0.24331 -0.562,0.53125 l 0,17.12498 c 0,0.4394 0.633,0.7223 0.937,0.4063 l 4.625,-4.62503 c 0.1,-0.10434 0.159,-0.22979 0.156,-0.375 l 0,-7.5 14.063,0 0,3.625 c 0,0.42531 0.63,0.69838 0.937,0.40625 l 7.032,-6.5625 c 0.218,-0.20977 0.21,-0.61182 0,-0.8125 l -7.032,-6.125 c -0.111,-0.0992 -0.289,-0.16883 -0.437,-0.15625 z m 5.125,11.625 c -0.123,0.0131 -0.226,0.0701 -0.312,0.15625 l -4.626,4.625 c -0.1,0.10435 -0.159,0.26106 -0.156,0.40625 l 0,7.46873 -14.062,0 0,-3.625 c 0,-0.4257 -0.63,-0.6678 -0.938,-0.375 l -7.062,6.53126 c -0.217,0.2097 -0.198,0.6118 0.03,0.8125 l 7.063,6.125 c 0.316,0.2749 0.904,0.013 0.906,-0.4063 l 0,-3.4687 19.25,0 c 0.289,-1e-4 0.531,-0.2433 0.531,-0.5313 l 0,-17.15619 c 0,-0.31236 -0.315,-0.60152 -0.625,-0.5625 z m -41.219,7.65623 c -1.052,0 -1.406,1 -1.406,1 l -2.281,7.06246 0,-2.1875 -3.656,0 0,2.7188 3.468,0 -0.25,0.6875 c -0.328,0.9996 -1.344,1.0625 -1.344,1.0625 l -0.281,0 c -1.052,0 -1.062,1.0312 -1.062,1.0312 l 0,4.0625 c 0,1.0524 0.937,1.0625 0.937,1.0625 0.931,0 0.969,1.0938 0.969,1.0938 l 0,0.094 c 0,0.194 -0.04,0.3086 0.03,0.4375 l -0.281,0 c 0,0 -1.094,0.042 -1.094,1.0937 l 0,12.3125 c 0,0 0.04,1.0625 1.094,1.0625 l 3.969,0 c 0,0 1.032,-0.01 1.031,-1.0625 l 0,-4.1562 7,0 0,0.1875 c 0,0 -0.03,1.0624 1.031,1.0624 l 11,0 c 0,0 1.032,-0.01 1.032,-1.0624 0,0 -0.04,-0.074 -0.06,-0.1875 l 6.875,0 0,4.1562 c 0,0 -0.03,1.0625 1.031,1.0625 l 4.031,0 c 0,0 1.032,-0.01 1.032,-1.0625 l 0,-12.3125 c 0,0 0.01,-1.0937 -1.032,-1.0937 l -0.25,0 c 0.113,-0.2472 0.09,-0.4375 0.09,-0.4375 l 0,-0.25 c 0,-1.0515 0.656,-1.0313 0.656,-1.0313 0.637,0 0.594,-1.0625 0.594,-1.0625 l 0,-2.25 -2.031,0 0,1.2188 -2.844,0 0,-1.2188 -2.031,0 c 0,0.061 0,0.125 0,0.1875 0,0.9836 -0.688,1.7319 -1.625,1.875 -0.322,0.7981 -0.96,1.3693 -1.594,1.6563 -0.889,0.4022 -2.204,0.4723 -3.25,-0.4375 l -7.031,-6.1563 -0.03,0 c -0.547,-0.4805 -0.894,-1.0599 -1.031,-1.6562 l -11.313,0 1.375,-5.46876 11.938,0 c -0.05,-0.2083 -0.09,-0.4259 -0.09,-0.6562 l 0,-2.4375 -13.313,0 z m 24.157,0 c 0.245,0.3727 0.406,0.8178 0.406,1.375 l 0,1.125 3.812,0 -0.468,-1.5 c -0.317,-1.0033 -1.407,-1 -1.407,-1 l -2.343,0 z m -21.844,11.28126 c 1.09,0 2,0.9106 2,2 0,1.089 -0.91,1.9375 -2,1.9375 -1.088,0 -1.969,-0.8481 -1.969,-1.9375 0,-1.0894 0.881,-2 1.969,-2 z m -6.625,0.9062 2.812,0 0,2.125 -2.812,0 0,-2.125 z" id="path4884-4-9-2-8-5-7-2-5" inkscape:connector-curvature="0"/>
  </g>

	
	
	<metadata>
		<rdf:RDF xmlns:rdf="http://www.w3.org/1999/02/22-rdf-syntax-ns#" xmlns:rdfs="http://www.w3.org/2000/01/rdf-schema#" xmlns:dc="http://purl.org/dc/elements/1.1/">
			<rdf:Description about="https://iconscout.com/legal#licenses" dc:title="Car, Modes, Way, Direction, Right, Left" dc:description="Car, Modes, Way, Direction, Right, Left" dc:publisher="Iconscout" dc:date="2016-12-14" dc:format="image/svg+xml" dc:language="en">
				<dc:creator>
					<rdf:Bag>
						<rdf:li>Dalpat Prajapati</rdf:li>
					</rdf:Bag>
				</dc:creator>
			</rdf:Description>
		</rdf:RDF>
    </metadata></svg>
