<svg width="30px" height="30px" fill= "#8F8F8F" xmlns="http://www.w3.org/2000/svg" id="Layer_1" enable-background="new 0 0 64 64" viewBox="0 0 64 64"><path d="M41.89,48.64H21.25c-1.28,0-2.32-1.04-2.32-2.32c0-1.28,1.04-2.32,2.32-2.32h20.65c1.28,0,2.32,1.04,2.32,2.32
					C44.21,47.6,43.17,48.64,41.89,48.64z"/><path d="M58.36,48.64h-8.44c-1.28,0-2.32-1.04-2.32-2.32c0-1.28,1.04-2.32,2.32-2.32h8.44c0.55,0,1-0.45,1-1
					c0-0.35-0.17-0.66-0.46-0.84c-0.42-0.26-0.92-0.55-1.49-0.84c-2.39-1.24-5.08-1.91-7.8-1.95c-0.38,0.04-0.77-0.01-1.14-0.16
					c-0.4-0.16-0.73-0.43-0.98-0.75l-9.09-9.65c-0.38-0.38-0.97-0.63-1.58-0.63H21.46c-0.71,0-1.38,0.32-1.84,0.87l-7.77,9.47
					c-0.44,0.54-1.1,0.85-1.79,0.85H4.64V44h8.58c1.28,0,2.32,1.04,2.32,2.32c0,1.28-1.04,2.32-2.32,2.32H4.37
					C1.96,48.64,0,46.68,0,44.26V39.1c0-2.41,1.96-4.37,4.37-4.37h4.59l7.07-8.62c1.34-1.63,3.31-2.57,5.42-2.57h15.37
					c1.83,0,3.61,0.74,4.9,2.03l8.64,9.17c3.24,0.15,6.38,0.99,9.18,2.45c0.68,0.35,1.29,0.7,1.82,1.03C63.02,39.27,64,41.05,64,43
					C64,46.11,61.47,48.64,58.36,48.64z"/><path d="M17.23 52.65c-3.49 0-6.33-2.84-6.33-6.33s2.84-6.33 6.33-6.33c3.49 0 6.33 2.84 6.33 6.33S20.72 52.65 17.23 52.65zM17.23 44.62c-.93 0-1.7.76-1.7 1.7s.76 1.7 1.7 1.7c.94 0 1.7-.76 1.7-1.7S18.17 44.62 17.23 44.62zM45.91 52.65c-3.49 0-6.33-2.84-6.33-6.33s2.84-6.33 6.33-6.33c3.49 0 6.33 2.84 6.33 6.33S49.4 52.65 45.91 52.65zM45.91 44.62c-.93 0-1.7.76-1.7 1.7s.76 1.7 1.7 1.7c.94 0 1.7-.76 1.7-1.7S46.84 44.62 45.91 44.62zM49.35 39.37H10.06c-1.28 0-2.32-1.04-2.32-2.32 0-1.28 1.04-2.32 2.32-2.32h39.29c1.28 0 2.32 1.04 2.32 2.32C51.67 38.33 50.63 39.37 49.35 39.37z"/><g><path d="M29.71,39.37c-1.28,0-2.32-1.04-2.32-2.32V25.87c0-1.28,1.04-2.32,2.32-2.32s2.32,1.04,2.32,2.32v11.18
				C32.02,38.33,30.99,39.37,29.71,39.37z"/></g><g><path d="M59.31,29.68c-1.28,0-2.32-1.04-2.32-2.32c0-3.03-1.18-5.88-3.33-8.04c-0.04-0.04-0.07-0.07-0.1-0.11
			c-2.14-2.08-4.95-3.22-7.93-3.22c-2.99,0-5.8,1.14-7.94,3.22c-0.03,0.04-0.07,0.08-0.11,0.12c-1.83,1.83-2.98,4.24-3.26,6.79
			c-0.14,1.27-1.27,2.19-2.55,2.06c-1.27-0.14-2.19-1.28-2.06-2.55c0.38-3.54,1.97-6.89,4.46-9.45c0.04-0.05,0.08-0.09,0.13-0.13
			c3.02-3.02,7.04-4.69,11.31-4.69c4.27,0,8.29,1.66,11.32,4.68c0.05,0.05,0.09,0.09,0.13,0.14c2.94,3.02,4.56,6.98,4.56,11.18
			C61.63,28.64,60.59,29.68,59.31,29.68z"/></g><g><path d="M54.54,40.06c-0.67,0-1.33-0.29-1.79-0.84c-0.81-0.99-0.67-2.45,0.31-3.26c0.21-0.17,0.41-0.37,0.6-0.56
				c2.15-2.15,3.33-5,3.33-8.03c0-1.28,1.04-2.32,2.32-2.32c1.28,0,2.32,1.04,2.32,2.32c0,4.27-1.66,8.29-4.69,11.31
				c-0.29,0.29-0.6,0.58-0.92,0.85C55.58,39.88,55.06,40.06,54.54,40.06z"/></g><g><path d="M45.64,29.68c-1.28,0-2.32-1.04-2.32-2.32c0-1.28,1.03-2.32,2.31-2.32h0.01c1.28,0,2.32,1.04,2.32,2.32
			C47.96,28.64,46.92,29.68,45.64,29.68z"/></g><g><path d="M45.62,29.68c-0.59,0-1.19-0.23-1.64-0.68c-0.91-0.91-0.91-2.37,0-3.28l3.64-3.64c0.91-0.91,2.37-0.91,3.28,0
			c0.91,0.91,0.91,2.37,0,3.28L47.26,29C46.81,29.45,46.22,29.68,45.62,29.68z"/></g></svg>