<svg xmlns="http://www.w3.org/2000/svg" enable-background="new 0 0 25 25" viewBox="0 0 25 25"><path fill="#DE002A" d="M5.731,17.5c-0.147,0-0.293-0.043-0.418-0.127c-0.143-0.096-0.248-0.238-0.298-0.4c-0.111-0.236-0.115-0.517,0.031-0.735l1.102-1.646L0.702,8.762C0.498,8.543,0.443,8.223,0.563,7.949C0.684,7.674,0.975,7.5,1.256,7.5l1.722,0.013L2.967,8.989l4.683,5.013c0.238,0.255,0.269,0.64,0.075,0.929l-0.519,0.775c13.072-2.48,15.37-3.891,15.76-4.361c-0.274-0.333-2.334-2.033-15.86-2.317l3.443,3.567l2.127-0.477l0.328,1.464l-2.539,0.569c-0.255,0.057-0.521-0.022-0.704-0.211l-4.99-5.169c-0.21-0.218-0.269-0.54-0.149-0.818C4.744,7.675,5.034,7.504,5.321,7.5C18.047,7.638,24.5,8.939,24.5,11.366c0,1.274-1.372,2.89-17.758,5.954c-0.439,0.082-0.736,0.138-0.851,0.163C5.838,17.494,5.785,17.5,5.731,17.5z"/></svg>