<?xml version="1.0" encoding="UTF-8"?><svg xmlns="http://www.w3.org/2000/svg" xmlns:xlink="http://www.w3.org/1999/xlink" version="1.1" id="Layer_1" x="0px" y="0px" viewBox="0 0 48 48" xml:space="preserve"><path d="M24 12C10.745 12 0 17.373 0 24s10.745 12 24 12 24-5.373 24-12-10.745-12-24-12zm0 22.489C12.317 34.489 2.811 29.783 2.811 24s9.505-10.487 21.188-10.487c11.683 0 21.188 4.704 21.188 10.487.001 5.783-9.504 10.489-21.187 10.489z" fill="#D50000"/><path d="M21.663 18.723h.396c.138 0 .213.104.213.236v10.787c0 .143.116.253.264.253h2.949c.149 0 .265-.11.265-.253V18.254a.26.26 0 0 0-.265-.254h-3.822c-.038 0-.038.035-.038.062v.6c0 .026 0 .061.038.061z" fill-rule="evenodd" clip-rule="evenodd" fill="#D50000"/><path d="M28.24 30h2.853c.138 0 .285-.107.342-.249l2.434-7.447c0-.002.028-.104.119-.104.087 0 .116.103.117.104l2.46 7.447a.391.391 0 0 0 .343.249h2.852c.1 0 .157-.048.188-.088a.258.258 0 0 0 .043-.221l-3.97-11.523c-.062-.149-.217-.168-.345-.168h-4.611c-.033 0-.065.03-.065.062v.6c0 .031.032.062.065.062h.392c.145 0 .243.083.243.207 0 .04-.009.083-.029.136l-3.662 10.625a.25.25 0 0 0 .044.22.233.233 0 0 0 .187.088z" fill-rule="evenodd" clip-rule="evenodd" fill="#D50000"/><path d="M8.378 18.723c.137 0 .245.104.245.236v10.787c0 .144.113.254.259.254h2.868c.143 0 .25-.113.25-.253V25.21c0-.099.055-.156.138-.156.097 0 .143.064.179.115l.012.016 3.374 4.538c.107.159.302.277.453.277h3.36a.252.252 0 0 0 .207-.131c.044-.082.033-.175-.031-.263l-4.256-5.841c-.013-.018-.018-.029-.026-.042a.178.178 0 0 1-.021-.052c-.003-.012-.007-.023-.007-.039 0-.049.025-.098.051-.151l.003-.007 3.529-5.11a.235.235 0 0 0 0-.243.236.236 0 0 0-.204-.121h-3.19c-.151 0-.348.118-.457.275l-2.786 3.805c-.086.125-.171.131-.187.131h-.003c-.078 0-.138-.05-.138-.127v-3.831a.257.257 0 0 0-.259-.253H8.065c-.034 0-.065.03-.065.062v.6c0 .032.031.062.065.062h.313z" fill-rule="evenodd" clip-rule="evenodd" fill="#D50000"/><metadata><rdf:RDF xmlns:rdf="http://www.w3.org/1999/02/22-rdf-syntax-ns#" xmlns:rdfs="http://www.w3.org/2000/01/rdf-schema#" xmlns:dc="http://purl.org/dc/elements/1.1/"><rdf:Description about="https://iconscout.com/legal#licenses" dc:title="kia" dc:description="kia" dc:publisher="Iconscout" dc:date="2017-12-15" dc:format="image/svg+xml" dc:language="en"><dc:creator><rdf:Bag><rdf:li>Icons8</rdf:li></rdf:Bag></dc:creator></rdf:Description></rdf:RDF></metadata></svg>