<svg xmlns="http://www.w3.org/2000/svg" width="32" height="32" viewBox="0 0 32 32"><g transform="translate(311.5 -1056.862)"><rect width="18" height="9" x="-300.5" y="1066.862" fill="#f0f4f7" stroke="#d2dce9" rx="1" ry="1"/><path fill="none" stroke="#0c5286" d="M-296.5 1063.3622l0 5M-286.5 1063.3622l0 5"/><rect width="2.115" height="27.5" x="-305.5" y="1058.862" fill="#f9bc36" rx="1" ry="1"/><path fill="#0c5286" d="m -307.5,64.5 c -0.554,0 -1,0.446 -1,1 l 0,1 1,0 6,0 1,0 0,-1 c 0,-0.554 -0.446,-1 -1,-1 l -6,0 z" transform="translate(0 1020.362)"/><rect width="2" height="23.25" x="1061.862" y="281.5" fill="#f9bc36" rx="1" ry="1" transform="rotate(90)"/><path fill="none" stroke="#406b95" d="M-299 1069.8622l3 0 0 0M-296 1071.8622l-3 0 0 0M-298.5 1072.3622l0-3M-296.5 1074.3622l0-3M-296 1073.8622l-3 0 0 0"/><path fill="none" stroke="#406b95" stroke-linecap="square" d="M-292.5 1073.8622l-2 0 0-4 2 0M-288.5 1073.8622l-2 0 0-4"/><path fill="none" stroke="#406b95" d="m -295,1071.8622 2,0"/><path fill="none" stroke="#406b95" stroke-linecap="square" d="m -284.5,1073.8622 -2,0 0,-4"/></g></svg>