<svg xmlns="http://www.w3.org/2000/svg" data-name="Layer 1" viewBox="0 0 64 64"><path fill="#bc741d" d="M27.37,31.42a6.3,6.3,0,1,1,4.73-2.14A6.31,6.31,0,0,1,27.37,31.42Zm0-10.61a4.31,4.31,0,1,0,4.3,4.31A4.32,4.32,0,0,0,27.37,20.81Z"/><path fill="#bc741d" d="M38.31,38.05a1,1,0,0,1-.7-.3L29.89,30a1,1,0,0,1,1.41-1.41L39,36.34a1,1,0,0,1,0,1.41A1,1,0,0,1,38.31,38.05Z"/><path fill="#1b6abf" d="M53.06,48.27H10.94A3.94,3.94,0,0,1,7,44.33V41.45a1,1,0,0,1,1-1H56a1,1,0,0,1,1,1v2.88A3.94,3.94,0,0,1,53.06,48.27ZM9,42.45v1.88a1.94,1.94,0,0,0,1.94,1.94H53.06A1.94,1.94,0,0,0,55,44.33V42.45Z"/><path fill="#1b6abf" d="M56 42.45H8a1 1 0 0 1-1-1V10.94A4 4 0 0 1 10.94 7H53.06A4 4 0 0 1 57 10.94V41.45A1 1 0 0 1 56 42.45zm-47-2H55V10.94A1.94 1.94 0 0 0 53.06 9H10.94A1.94 1.94 0 0 0 9 10.94zM37.82 57H26.18a1 1 0 0 1-.8-.4 1 1 0 0 1-.16-.87L27.71 47a1 1 0 0 1 1-.73h6.66a1 1 0 0 1 1 .73l2.49 8.73a1 1 0 0 1-.16.87A1 1 0 0 1 37.82 57zM27.51 55h9l-1.91-6.73H29.42zM11.5 45.5h-1a1 1 0 0 1 0-2h1a1 1 0 0 1 0 2zM27.5 45.5h-13a1 1 0 0 1 0-2h13a1 1 0 0 1 0 2zM52.5 45.5a1 1 0 0 1-.71-.29 1.15 1.15 0 0 1-.21-.33.84.84 0 0 1-.08-.38 1.05 1.05 0 0 1 .29-.71 1 1 0 0 1 .33-.21 1 1 0 0 1 1.09.21 1.05 1.05 0 0 1 .29.71.84.84 0 0 1-.08.38 1.15 1.15 0 0 1-.21.33A1 1 0 0 1 52.5 45.5zM49.5 45.5a1 1 0 0 1-.92-1.38 1 1 0 0 1 .21-.33l.15-.12.18-.09a.64.64 0 0 1 .18-.06 1 1 0 0 1 .91.27 1.05 1.05 0 0 1 .29.71.84.84 0 0 1-.08.38.9.9 0 0 1-.54.54A1 1 0 0 1 49.5 45.5z"/><path fill="#1b6abf" d="M32,12.5a1,1,0,0,1-.92-1.38,1,1,0,0,1,.21-.33,1,1,0,0,1,1.09-.21,1.15,1.15,0,0,1,.33.21,1,1,0,0,1,.21.33A1,1,0,0,1,32,12.5Z"/></svg>