<svg xmlns="http://www.w3.org/2000/svg" enable-background="new 0 0 24 24" viewBox="0 0 24 24"><path fill="#F44336" d="M8.616,6.05C8.84,5.331,9.409,5.698,9.409,5.698s1.473,1.101,5.514,3.625C18.964,11.847,24,8.344,24,8.344L12.036,0C6.789,5.46,0.072,7.417,0.072,7.417l0.019,0.007L15.384,17.95c-0.224,0.719-0.793,0.351-0.793,0.351s-1.473-1.1-5.514-3.625C5.037,12.154,0,15.656,0,15.656L11.964,24c5.247-5.46,11.964-7.417,11.964-7.417l-0.019-0.007L8.616,6.05L8.616,6.05z"/><path fill="#D43A2F" d="M5.77,13.763c-3.047,0-5.77,1.893-5.77,1.893l0,0L11.964,24c0.012-0.012,0.024-0.025,0.036-0.037V16.54c-0.771-0.504-1.736-1.122-2.923-1.863C8.007,14.009,6.867,13.763,5.77,13.763L5.77,13.763z M12,0.038C6.758,5.469,0.072,7.417,0.072,7.417l0.019,0.007L12,15.621V8.379L8.616,6.05c0.111-0.355,0.306-0.445,0.475-0.445c0.173,0,0.318,0.094,0.318,0.094S10.144,6.247,12,7.46V0.038L12,0.038z"/></svg>