<?xml version="1.0" encoding="UTF-8" standalone="no"?>
<svg xmlns:dc="http://purl.org/dc/elements/1.1/" xmlns:cc="http://creativecommons.org/ns#" xmlns:rdf="http://www.w3.org/1999/02/22-rdf-syntax-ns#" xmlns:svg="http://www.w3.org/2000/svg" xmlns="http://www.w3.org/2000/svg" xmlns:sodipodi="http://sodipodi.sourceforge.net/DTD/sodipodi-0.dtd" xmlns:inkscape="http://www.inkscape.org/namespaces/inkscape" width="48" height="48" viewBox="0 0 48 48" id="svg6485" version="1.1" inkscape:version="0.91 r" sodipodi:docname="tool-hammer-construction.svg">
  <defs id="defs6487">
    <inkscape:path-effect is_visible="true" id="path-effect5312" effect="spiro"/>
    <inkscape:path-effect is_visible="true" id="path-effect5302" effect="spiro"/>
    <inkscape:path-effect effect="spiro" id="path-effect5298" is_visible="true"/>
    <inkscape:path-effect is_visible="true" id="path-effect5294" effect="spiro"/>
    <inkscape:path-effect is_visible="true" id="path-effect5284" effect="spiro"/>
    <inkscape:path-effect effect="spiro" id="path-effect5280" is_visible="true"/>
    <inkscape:path-effect effect="spiro" id="path-effect5806" is_visible="true"/>
    <inkscape:path-effect effect="spiro" id="path-effect5802" is_visible="true"/>
    <inkscape:path-effect is_visible="true" id="path-effect5798" effect="spiro"/>
    <inkscape:path-effect effect="spiro" id="path-effect5794" is_visible="true"/>
    <inkscape:path-effect is_visible="true" id="path-effect5790" effect="spiro"/>
    <inkscape:path-effect effect="spiro" id="path-effect5786" is_visible="true"/>
    <inkscape:path-effect is_visible="true" id="path-effect5697" effect="spiro"/>
    <inkscape:path-effect effect="spiro" id="path-effect5694" is_visible="true"/>
    <inkscape:path-effect is_visible="true" id="path-effect5691" effect="spiro"/>
    <inkscape:path-effect effect="spiro" id="path-effect5688" is_visible="true"/>
    <inkscape:path-effect effect="spiro" id="path-effect5661" is_visible="true"/>
    <inkscape:path-effect is_visible="true" id="path-effect5657" effect="spiro"/>
    <inkscape:path-effect effect="spiro" id="path-effect5653" is_visible="true"/>
    <inkscape:path-effect is_visible="true" id="path-effect5645" effect="spiro"/>
    <inkscape:path-effect effect="spiro" id="path-effect5641" is_visible="true"/>
    <inkscape:path-effect is_visible="true" id="path-effect5618" effect="spiro"/>
    <inkscape:path-effect effect="spiro" id="path-effect5615" is_visible="true"/>
    <inkscape:path-effect is_visible="true" id="path-effect5612" effect="spiro"/>
    <inkscape:path-effect effect="spiro" id="path-effect5609" is_visible="true"/>
    <inkscape:path-effect is_visible="true" id="path-effect5581" effect="spiro"/>
    <inkscape:path-effect effect="spiro" id="path-effect5577" is_visible="true"/>
    <inkscape:path-effect is_visible="true" id="path-effect5573" effect="spiro"/>
    <inkscape:path-effect effect="spiro" id="path-effect5569" is_visible="true"/>
    <inkscape:path-effect is_visible="true" id="path-effect5554" effect="spiro"/>
    <inkscape:path-effect effect="spiro" id="path-effect5550" is_visible="true"/>
    <inkscape:path-effect is_visible="true" id="path-effect5546" effect="spiro"/>
    <inkscape:path-effect effect="spiro" id="path-effect5542" is_visible="true"/>
    <inkscape:path-effect is_visible="true" id="path-effect5538" effect="spiro"/>
    <inkscape:path-effect effect="spiro" id="path-effect5534" is_visible="true"/>
    <inkscape:path-effect is_visible="true" id="path-effect5226" effect="spiro"/>
    <inkscape:path-effect effect="spiro" id="path-effect5222" is_visible="true"/>
    <inkscape:path-effect effect="spiro" id="path-effect5218" is_visible="true"/>
    <inkscape:path-effect effect="spiro" id="path-effect5076" is_visible="true"/>
    <inkscape:path-effect effect="spiro" id="path-effect5071" is_visible="true"/>
    <inkscape:path-effect effect="spiro" id="path-effect4153" is_visible="true"/>
    <inkscape:path-effect is_visible="true" id="path-effect4239" effect="spiro"/>
    <inkscape:path-effect effect="spiro" id="path-effect4223" is_visible="true"/>
    <inkscape:path-effect is_visible="true" id="path-effect4217" effect="spiro"/>
    <inkscape:path-effect effect="spiro" id="path-effect4213" is_visible="true"/>
    <inkscape:path-effect effect="spiro" id="path-effect5296" is_visible="true"/>
    <inkscape:path-effect effect="spiro" id="path-effect7060" is_visible="true"/>
    <inkscape:path-effect effect="spiro" id="path-effect4979" is_visible="true"/>
    <inkscape:path-effect is_visible="true" id="path-effect5573-2" effect="spiro"/>
    <inkscape:path-effect effect="spiro" id="path-effect5688-9" is_visible="true"/>
    <inkscape:path-effect is_visible="true" id="path-effect5573-2-4" effect="spiro"/>
    <inkscape:path-effect effect="spiro" id="path-effect5641-9" is_visible="true"/>
    <inkscape:path-effect is_visible="true" id="path-effect5645-8" effect="spiro"/>
    <inkscape:path-effect effect="spiro" id="path-effect5569-1" is_visible="true"/>
    <inkscape:path-effect is_visible="true" id="path-effect5573-6" effect="spiro"/>
    <inkscape:path-effect effect="spiro" id="path-effect5577-3" is_visible="true"/>
    <inkscape:path-effect is_visible="true" id="path-effect5581-9" effect="spiro"/>
    <inkscape:path-effect effect="spiro" id="path-effect5534-3" is_visible="true"/>
    <inkscape:path-effect effect="spiro" id="path-effect5542-3" is_visible="true"/>
    <inkscape:path-effect is_visible="true" id="path-effect5546-4" effect="spiro"/>
    <inkscape:path-effect effect="spiro" id="path-effect5550-6" is_visible="true"/>
    <inkscape:path-effect is_visible="true" id="path-effect5554-1" effect="spiro"/>
    <inkscape:path-effect effect="spiro" id="path-effect5222-5" is_visible="true"/>
    <inkscape:path-effect is_visible="true" id="path-effect5226-6" effect="spiro"/>
    <inkscape:path-effect effect="spiro" id="path-effect4979-1" is_visible="true"/>
    <inkscape:path-effect effect="spiro" id="path-effect4979-3" is_visible="true"/>
    <inkscape:path-effect is_visible="true" id="path-effect5349" effect="spiro"/>
    <inkscape:path-effect is_visible="true" id="path-effect6480" effect="spiro"/>
    <inkscape:path-effect is_visible="true" id="path-effect5541" effect="spiro"/>
  </defs>
  <sodipodi:namedview id="base" pagecolor="#ffffff" bordercolor="#666666" borderopacity="1.0" inkscape:pageopacity="0.0" inkscape:pageshadow="2" inkscape:zoom="9.7968751" inkscape:cx="15.606137" inkscape:cy="24.983488" inkscape:document-units="px" inkscape:current-layer="layer1" showgrid="true" units="px" inkscape:window-width="1309" inkscape:window-height="744" inkscape:window-x="57" inkscape:window-y="24" inkscape:window-maximized="1" inkscape:snap-global="true" showguides="false" inkscape:guide-bbox="true" inkscape:snap-bbox="true" inkscape:bbox-nodes="true" inkscape:snap-bbox-edge-midpoints="true" inkscape:snap-bbox-midpoints="false" inkscape:bbox-paths="false" inkscape:object-nodes="false">
    <inkscape:grid type="xygrid" id="grid4145" empspacing="4"/>
  </sodipodi:namedview>
  
  <g inkscape:label="Layer 1" inkscape:groupmode="layer" id="layer1" transform="translate(0,-1004.3622)">
    
    <g transform="scale(1.1477838,0.87124422)" style="font-style:normal;font-variant:normal;font-weight:normal;font-stretch:normal;font-size:12.37186241px;line-height:125%;font-family:'Roboto Condensed';-inkscape-font-specification:'Roboto Condensed, ';letter-spacing:0px;word-spacing:0px;fill:#000000;fill-opacity:1;stroke:none;stroke-width:1px;stroke-linecap:butt;stroke-linejoin:miter;stroke-opacity:1" id="text4981"/>
    <g id="g6822">
      <g id="g5994" transform="translate(693.02794,153.17156)">
        <path style="color:#000000;font-style:normal;font-variant:normal;font-weight:normal;font-stretch:normal;font-size:medium;line-height:normal;font-family:sans-serif;text-indent:0;text-align:start;text-decoration:none;text-decoration-line:none;text-decoration-style:solid;text-decoration-color:#000000;letter-spacing:normal;word-spacing:normal;text-transform:none;direction:ltr;block-progression:tb;writing-mode:lr-tb;baseline-shift:baseline;text-anchor:start;white-space:normal;clip-rule:nonzero;display:inline;overflow:visible;visibility:visible;opacity:1;isolation:auto;mix-blend-mode:normal;color-interpolation:sRGB;color-interpolation-filters:linearRGB;solid-color:#000000;solid-opacity:1;fill:#7cbe95;fill-opacity:1;fill-rule:nonzero;stroke:none;stroke-width:0.99999994;stroke-linecap:round;stroke-linejoin:round;stroke-miterlimit:4;stroke-dasharray:none;stroke-dashoffset:0;stroke-opacity:1;color-rendering:auto;image-rendering:auto;shape-rendering:auto;text-rendering:auto;enable-background:accumulate" d="m -669.02794,851.19064 c -13.25187,0 -24,10.74825 -24,24 0,13.2519 10.74813,24 24,24 13.25187,0 24,-10.7481 24,-24 0,-13.25175 -10.74813,-24 -24,-24 z m 0,1.5 c 12.42359,0 22.5,10.07655 22.5,22.5 0,12.4236 -10.07641,22.5 -22.5,22.5 -12.42359,0 -22.5,-10.0764 -22.5,-22.5 0,-12.42345 10.07641,-22.5 22.5,-22.5 z" id="path5769" inkscape:connector-curvature="0"/>
        <path style="color:#000000;font-style:normal;font-variant:normal;font-weight:normal;font-stretch:normal;font-size:medium;line-height:normal;font-family:sans-serif;text-indent:0;text-align:start;text-decoration:none;text-decoration-line:none;text-decoration-style:solid;text-decoration-color:#000000;letter-spacing:normal;word-spacing:normal;text-transform:none;direction:ltr;block-progression:tb;writing-mode:lr-tb;baseline-shift:baseline;text-anchor:start;white-space:normal;clip-rule:nonzero;display:inline;overflow:visible;visibility:visible;opacity:1;isolation:auto;mix-blend-mode:normal;color-interpolation:sRGB;color-interpolation-filters:linearRGB;solid-color:#000000;solid-opacity:1;fill:#7cbe95;fill-opacity:1;fill-rule:nonzero;stroke:none;stroke-width:0.99999994;stroke-linecap:round;stroke-linejoin:round;stroke-miterlimit:4;stroke-dasharray:none;stroke-dashoffset:0;stroke-opacity:1;color-rendering:auto;image-rendering:auto;shape-rendering:auto;text-rendering:auto;enable-background:accumulate" d="m -669.02794,855.44059 c -10.90519,0 -19.75,8.84505 -19.75,19.75005 0,10.90515 8.84481,19.75005 19.75,19.75005 10.90519,0 19.75,-8.8449 19.75,-19.75005 0,-10.905 -8.84481,-19.75005 -19.75,-19.75005 z" id="path5771" inkscape:connector-curvature="0" sodipodi:nodetypes="sssss"/>
        <path style="color:#000000;clip-rule:nonzero;display:inline;overflow:visible;visibility:visible;opacity:1;isolation:auto;mix-blend-mode:normal;color-interpolation:sRGB;color-interpolation-filters:linearRGB;solid-color:#000000;solid-opacity:1;fill:#57a071;fill-opacity:1;fill-rule:nonzero;stroke:none;stroke-width:1.5;stroke-linecap:butt;stroke-linejoin:miter;stroke-miterlimit:4;stroke-dasharray:none;stroke-dashoffset:0;stroke-opacity:1;color-rendering:auto;image-rendering:auto;shape-rendering:auto;text-rendering:auto;enable-background:accumulate" d="m -669.02794,855.44059 c -10.90519,0 -19.75,8.84505 -19.75,19.75005 0,5.4579 2.21752,10.39755 5.798,13.9728 l 27.92477,-27.92475 c -3.57517,-3.5805 -8.51487,-5.7981 -13.97277,-5.7981 z" id="path5773" inkscape:connector-curvature="0"/>
      </g>
      <g transform="matrix(0.93330377,0,0,0.93330377,1.1337721,68.587882)" id="g5482">
        <path style="color:#000000;font-style:normal;font-variant:normal;font-weight:normal;font-stretch:normal;font-size:medium;line-height:normal;font-family:sans-serif;text-indent:0;text-align:start;text-decoration:none;text-decoration-line:none;text-decoration-style:solid;text-decoration-color:#000000;letter-spacing:normal;word-spacing:normal;text-transform:none;direction:ltr;block-progression:tb;writing-mode:lr-tb;baseline-shift:baseline;text-anchor:start;white-space:normal;clip-rule:nonzero;display:inline;overflow:visible;visibility:visible;opacity:1;isolation:auto;mix-blend-mode:normal;color-interpolation:sRGB;color-interpolation-filters:linearRGB;solid-color:#000000;solid-opacity:1;fill:#ffffff;fill-opacity:1;fill-rule:nonzero;stroke:none;stroke-width:0.99999994;stroke-linecap:round;stroke-linejoin:round;stroke-miterlimit:4;stroke-dasharray:none;stroke-dashoffset:0;stroke-opacity:1;color-rendering:auto;image-rendering:auto;shape-rendering:auto;text-rendering:auto;enable-background:accumulate" d="M 17.498047,9 C 16.21468,9 14.520749,9.1295875 12.806641,9.9921875 11.092534,10.854788 9.3787291,12.452803 8.046875,15.283203 7.8907581,15.615101 8.1332189,15.996559 8.5,15.996094 l 5.498047,0 c 1.116555,0 2,0.8835 2,2 l 0,0.503906 0,20 c 2.8e-5,0.276131 0.223869,0.499972 0.5,0.5 l 3.964844,0 0.03516,0 c 0.276131,-2.8e-5 0.499972,-0.223869 0.5,-0.5 l 0,-20 0,-2 0,-0.5 1,0 0,0.5 0,1 c 2.8e-5,0.276131 0.223869,0.499972 0.5,0.5 l 2.083984,0 1.916016,0 c 0.276131,-2.8e-5 0.499972,-0.223869 0.5,-0.5 l 0,-8 c -2.8e-5,-0.2761309 -0.223869,-0.4999724 -0.5,-0.5 l -1.916016,0 -2.083984,0 c -0.276131,2.76e-5 -0.499972,0.2238691 -0.5,0.5 l 0,1 0,0.5 -1,0 0,-0.5 -0.002,-1 c -2.8e-5,-0.2761309 -0.223869,-0.4999724 -0.5,-0.5 z M 33,9 c -1.653359,0 -3,1.3467 -3,3 l 0,7 c 0,1.1694 0.753034,2.060434 1.732422,2.552734 l -1.658203,2.685547 C 29.869701,24.571333 30.109166,24.999734 30.5,25 l 2,0 0,10.5 0,3 c 4e-4,0.262215 0.20328,0.479586 0.464844,0.498047 0.01172,4.12e-4 0.02344,4.12e-4 0.03516,0 l 1.964844,0 0.03516,0 c 0.01692,8.6e-4 0.03386,8.6e-4 0.05078,0 0.254641,-0.02602 0.44852,-0.240129 0.449219,-0.496094 l 0,-3 0,-10.5 2,0 c 0.390834,-2.66e-4 0.630299,-0.428667 0.425781,-0.761719 l -1.65821,-2.685546 C 37.246958,21.060487 38,20.1694 38,19 l 0,-7 C 38,10.3467 36.653359,9 35,9 Z m -15.501953,1 2.498047,0 0.002,0.501953 0,0.998047 c 2.8e-5,0.276131 0.223869,0.499972 0.5,0.5 l 2,0 c 0.276131,-2.8e-5 0.499972,-0.223869 0.5,-0.5 l 0,-1 0,-0.5 1.583984,0 1.416016,0 0,7 -1.416016,0 -1.583984,0 0,-0.5 0,-1 c -2.8e-5,-0.276131 -0.223869,-0.499972 -0.5,-0.5 l -2,0 c -0.276131,2.8e-5 -0.499972,0.223869 -0.5,0.5 l 0,1 0,1.5 -3,0 c 0,-1.6533 -1.346672,-3 -3,-3 l -4.576172,0 c 1.164541,-2.1124 2.493189,-3.436628 3.833984,-4.111328 1.513422,-0.7616 3.025554,-0.884766 4.242188,-0.884766 z M 33,10 l 2,0 c 1.116661,0 2,0.8834 2,2 l 0,7 c 0,0.9489 -0.645357,1.721147 -1.521484,1.935547 -0.329506,0.08077 -0.48465,0.459238 -0.306641,0.748047 L 36.603516,24 35,24 l -2,0 -1.603516,0 1.431641,-2.316406 c 0.178009,-0.288809 0.02287,-0.66728 -0.306641,-0.748047 C 31.645357,20.721147 31,19.9489 31,19 l 0,-7 c 0,-1.1166 0.883339,-2 2,-2 z m -16.001953,9 3,0 0,19 -3,0 z M 33.5,25 l 1,0 0,10 -1,0 z m 0,11 1,0 0,2 -1,0 z" transform="translate(0,1004.3622)" id="rect5431" inkscape:connector-curvature="0" sodipodi:nodetypes="ssccsscccccccccccccccccccccccccccsssscccccccccccccccccssssccccccccccccccccccccccsccccssssccccccccsssccccccccccccccc"/>
      </g>
    </g>
  </g>

	<metadata>
		<rdf:RDF xmlns:rdf="http://www.w3.org/1999/02/22-rdf-syntax-ns#" xmlns:rdfs="http://www.w3.org/2000/01/rdf-schema#" xmlns:dc="http://purl.org/dc/elements/1.1/">
			<rdf:Description about="https://iconscout.com/legal#licenses" dc:title="tool-hammer-construction" dc:description="tool-hammer-construction" dc:publisher="Iconscout" dc:date="2017-03-09" dc:format="image/svg+xml" dc:language="en">
				<dc:creator>
					<rdf:Bag>
						<rdf:li>Devendra Karkar</rdf:li>
					</rdf:Bag>
				</dc:creator>
			</rdf:Description>
		</rdf:RDF>
    </metadata></svg>
